<svg width="24" height="21" viewBox="0 0 24 21" fill="none" xmlns="http://www.w3.org/2000/svg">
<path d="M0.750244 0.750206L3.08966 1.53002C3.95898 1.81978 4.60011 2.56194 4.76049 3.46413L6.1336 11.1878C6.34572 12.381 7.38309 13.2502 8.59499 13.2502H18.1202C19.2337 13.2502 20.213 12.5138 20.522 11.4441L22.3276 5.19406C22.7894 3.59543 21.5897 2.00021 19.9257 2.00021H8.25025M9.50025 17.6252C9.50025 18.6607 8.66078 19.5002 7.62524 19.5002C6.58971 19.5002 5.75024 18.6607 5.75024 17.6252C5.75024 16.5897 6.58971 15.7502 7.62524 15.7502C8.66078 15.7502 9.50025 16.5897 9.50025 17.6252ZM19.5002 17.6252C19.5002 18.6607 18.6607 19.5002 17.6252 19.5002C16.5897 19.5002 15.7502 18.6607 15.7502 17.6252C15.7502 16.5897 16.5897 15.7502 17.6252 15.7502C18.6607 15.7502 19.5002 16.5897 19.5002 17.6252Z" stroke="#008080" stroke-width="1.5" stroke-linecap="round"/>
</svg>
