<svg width="27" height="27" viewBox="0 0 27 27" fill="none" xmlns="http://www.w3.org/2000/svg">
<path d="M3.3457 5.57593L5.43283 6.27164C6.2084 6.53016 6.78038 7.19228 6.92348 7.99717L8.1485 14.8879C8.33774 15.9524 9.26325 16.7279 10.3445 16.7279H18.8425C19.8359 16.7279 20.7095 16.0709 20.9852 15.1165L22.5961 9.54054C23.0081 8.11432 21.9378 6.69112 20.4533 6.69112H10.0369M11.1521 20.6311C11.1521 21.5549 10.4031 22.3039 9.47928 22.3039C8.55542 22.3039 7.80649 21.5549 7.80649 20.6311C7.80649 19.7072 8.55542 18.9583 9.47928 18.9583C10.4031 18.9583 11.1521 19.7072 11.1521 20.6311ZM20.0736 20.6311C20.0736 21.5549 19.3247 22.3039 18.4009 22.3039C17.477 22.3039 16.7281 21.5549 16.7281 20.6311C16.7281 19.7072 17.477 18.9583 18.4009 18.9583C19.3247 18.9583 20.0736 19.7072 20.0736 20.6311Z" stroke="white" stroke-width="1.5" stroke-linecap="round"/>
</svg>
