<svg width="32" height="32" viewBox="0 0 32 32" fill="none" xmlns="http://www.w3.org/2000/svg">
<path d="M26.0701 3.99607C25.7492 4.01988 25.4341 4.09517 25.1371 4.21907H25.1331C24.8481 4.33207 23.4931 4.90207 21.4331 5.76607L14.0511 8.87507C8.75412 11.1051 3.54712 13.3011 3.54712 13.3011L3.60912 13.2771C3.60912 13.2771 3.25012 13.3951 2.87512 13.6521C2.64292 13.7988 2.44344 13.9918 2.28912 14.2191C2.10512 14.4891 1.95712 14.9021 2.01212 15.3291C2.10212 16.0511 2.57012 16.4841 2.90612 16.7231C3.24612 16.9651 3.57012 17.0781 3.57012 17.0781H3.57812L8.46112 18.7231C8.68012 19.4261 9.94912 23.5981 10.2541 24.5591C10.4341 25.1331 10.6091 25.4921 10.8281 25.7661C10.9328 25.9061 11.0591 26.0231 11.2071 26.1171C11.284 26.1633 11.3667 26.1989 11.4531 26.2231L11.4031 26.2111C11.4181 26.2151 11.4301 26.2271 11.4411 26.2311C11.4811 26.2421 11.5081 26.2461 11.5591 26.2541C12.3321 26.4881 12.9531 26.0081 12.9531 26.0081L12.9881 25.9801L15.8711 23.3551L20.7031 27.0621L20.8131 27.1091C21.8201 27.5511 22.8401 27.3051 23.3791 26.8711C23.9221 26.4341 24.1331 25.8751 24.1331 25.8751L24.1681 25.7851L27.9021 6.65607C28.0081 6.18407 28.0351 5.74207 27.9181 5.31307C27.7981 4.87859 27.5194 4.50497 27.1371 4.26607C26.8166 4.07107 26.4448 3.977 26.0701 3.99607ZM25.9691 6.04607C25.9651 6.10907 25.9771 6.10207 25.9491 6.22307V6.23407L22.2501 25.1641C22.2341 25.1911 22.2071 25.2501 22.1331 25.3091C22.0551 25.3711 21.9931 25.4101 21.6681 25.2811L15.7581 20.7501L12.1881 24.0041L12.9381 19.2141L22.5941 10.2141C22.9921 9.84407 22.8591 9.76607 22.8591 9.76607C22.8871 9.31207 22.2581 9.63307 22.2581 9.63307L10.0821 17.1761L10.0781 17.1561L4.24212 15.1911V15.1871L4.22712 15.1841L4.25712 15.1721L4.28912 15.1561L4.32012 15.1451C4.32012 15.1451 9.53112 12.9491 14.8281 10.7191C17.4801 9.60207 20.1521 8.47707 22.2071 7.60907C23.4259 7.09607 24.6459 6.58607 25.8671 6.07907C25.9491 6.04707 25.9101 6.04607 25.9691 6.04607Z" fill="white"/>
</svg>
