<svg width="32" height="32" viewBox="0 0 32 32" fill="none" xmlns="http://www.w3.org/2000/svg">
<path d="M21.4981 18.382C21.1997 18.233 19.7317 17.515 19.4584 17.415C19.1841 17.316 18.9851 17.267 18.7852 17.565C18.5873 17.862 18.0145 18.531 17.8407 18.729C17.6669 18.928 17.4921 18.952 17.1936 18.804C16.8952 18.654 15.9327 18.341 14.7922 17.329C13.905 16.541 13.3052 15.568 13.1314 15.27C12.9575 14.973 13.1133 14.812 13.262 14.664C13.3966 14.531 13.5614 14.317 13.7101 14.144C13.8588 13.971 13.909 13.846 14.0095 13.647C14.109 13.449 14.0598 13.276 13.9844 13.127C13.909 12.978 13.3122 11.515 13.064 10.92C12.8209 10.341 12.5747 10.42 12.3918 10.41C12.201 10.4025 12.0101 10.3992 11.8191 10.4C11.6202 10.4 11.2966 10.474 11.0233 10.772C10.75 11.069 9.97838 11.788 9.97838 13.251C9.97838 14.713 11.0485 16.126 11.1972 16.325C11.3459 16.524 13.3032 19.525 16.2984 20.812C17.0108 21.118 17.5664 21.301 18.0005 21.437C18.7159 21.664 19.367 21.632 19.8804 21.555C20.4541 21.47 21.6468 20.836 21.896 20.142C22.1451 19.448 22.1451 18.853 22.0698 18.729C21.9954 18.605 21.7975 18.531 21.4981 18.382ZM16.0502 25.785H16.0462C14.2675 25.7851 12.5215 25.3092 10.9912 24.407L10.6285 24.193L6.86962 25.175L7.87238 21.527L7.63626 21.153C6.64198 19.5773 6.11599 17.7537 6.11906 15.893C6.12007 10.443 10.5762 6.00903 16.0542 6.00903C18.7068 6.00903 21.2007 7.03903 23.0756 8.90703C24.0009 9.82348 24.7342 10.9136 25.2332 12.1141C25.7322 13.3147 25.9868 14.6018 25.9824 15.901C25.9793 21.351 21.5242 25.785 16.0502 25.785ZM24.5033 7.48803C23.3961 6.37918 22.0789 5.49994 20.6279 4.90122C19.1769 4.3025 17.621 3.99619 16.0502 4.00004C9.46394 4.00004 4.10349 9.33503 4.10048 15.892C4.10048 17.988 4.65009 20.034 5.69605 21.837L4 28L10.3351 26.346C12.0873 27.2952 14.0502 27.793 16.0452 27.794H16.0502C22.6355 27.794 27.9969 22.459 27.9999 15.901C28.0049 14.3383 27.6983 12.7901 27.0982 11.346C26.498 9.90195 25.616 8.59067 24.5033 7.48803Z" fill="white"/>
</svg>
